<svg xmlns="http://www.w3.org/2000/svg" id="Layer_1" data-name="Layer 1" width="941.002" height="207.1498" viewBox="0 0 941.002 207.1498"><defs><style>.cls-1{fill:#0d012b;}.cls-2{fill:#7f00ff;}</style></defs><path class="cls-1" d="M717.3457,492.1948q-4.5813,0-7.0435-2.5195-2.4637-2.5181-2.4619-7.1011v-63.563q0-4.6948,2.6338-7.1577t7.4444-2.4624a11.491,11.491,0,0,1,6.2993,1.5459,13.7334,13.7334,0,0,1,4.352,5.0967l22.562,40.6572,22.562-40.6572a14.9213,14.9213,0,0,1,4.4092-5.0967,11.4256,11.4256,0,0,1,6.3565-1.5459,9.5739,9.5739,0,0,1,6.9863,2.4624q2.5173,2.4639,2.5195,7.1577v63.563q0,4.582-2.4052,7.1011-2.4054,2.5173-7.1006,2.5195-4.5821,0-7.0435-2.5195-2.4647-2.5181-2.4624-7.1011V447.3l-16.0342,27.9448a13.3162,13.3162,0,0,1-3.3784,3.7793,9.488,9.488,0,0,1-9.4487,0,11.6656,11.6656,0,0,1-3.3213-3.7793l-15.9194-27.4868v34.8164q0,4.582-2.4048,7.1011Q722.0415,492.1926,717.3457,492.1948Z" transform="translate(-484.3446 -349)"></path><path class="cls-1" d="M823.8555,512.81a8.8282,8.8282,0,0,1-5.7837-1.8326,7.4251,7.4251,0,0,1-2.6914-4.7529,11.4456,11.4456,0,0,1,1.0307-6.3564L822.252,487.27,804.5,446.7271q-2.2917-5.1534,0-9.0479,2.29-3.892,8.9336-3.8936a9.7144,9.7144,0,0,1,5.8408,1.6607q2.29,1.6611,4.1231,6.4707l9.62,24.8525,10.0786-24.9673q1.83-4.6947,4.18-6.3559a10.823,10.823,0,0,1,6.3564-1.6607q5.0384,0,7.1577,3.8936t-.1714,9.0479l-25.998,58.41q-2.0617,4.4664-4.5239,6.07A11.2344,11.2344,0,0,1,823.8555,512.81Z" transform="translate(-484.3446 -349)"></path><path class="cls-1" d="M871.7266,491.9658a3.9552,3.9552,0,0,1-3.7793-1.8325q-1.0312-1.83.229-4.5811l31.4951-71.6948q1.83-4.2355,5.6118-4.2373a5.4912,5.4912,0,0,1,3.1494.9737,6.9127,6.9127,0,0,1,2.3482,3.2636L942.39,485.5522q1.2591,2.7489.3438,4.5811-.9177,1.83-3.6651,1.8325a4.9055,4.9055,0,0,1-3.3212-1.0879,7.7836,7.7836,0,0,1-2.0616-3.15l-7.4443-17.1792H884.21l-7.33,17.1792Q875.0471,491.9666,871.7266,491.9658Zm33.4423-70.5493-17.5229,41.23H922.92l-17.5225-41.23Z" transform="translate(-484.3446 -349)"></path><path class="cls-1" d="M960.37,491.9658q-4.6977,0-4.6958-4.81V439.3975q0-4.6948,4.4668-4.6958,4.5784,0,4.5816,4.6958v6.07a16.8693,16.8693,0,0,1,7.1-8.0742,24.05,24.05,0,0,1,11.4531-3.0352q3.6651-.3435,3.8945,3.665.3428,4.01-4.123,4.4668l-1.8321.2291q-7.9043.687-12.0253,4.9819-4.125,4.295-4.1231,11.7392v27.7159Q965.0664,491.9656,960.37,491.9658Z" transform="translate(-484.3446 -349)"></path><path class="cls-1" d="M1021.9834,492.1948q-9.8511,0-14.7744-5.2109t-4.9248-15.0606V442.7188h-7.6729q-4.0107,0-4.0088-3.6651,0-3.5486,4.0088-3.55h7.6729V422.3325q0-4.6948,4.6963-4.6953,4.579,0,4.581,4.6953v13.1709h14.4307q4.0079,0,4.0078,3.55,0,3.6664-4.0078,3.6651h-14.4307v28.2885q0,6.5281,2.7481,9.9063,2.7495,3.38,8.9336,3.3789a12.6178,12.6178,0,0,0,3.665-.458,9.1338,9.1338,0,0,1,2.6338-.4585,1.8772,1.8772,0,0,1,1.7178.6875,4.2517,4.2517,0,0,1,.6875,2.7485,6.062,6.062,0,0,1-.5157,2.5195,2.9544,2.9544,0,0,1-1.7744,1.6036,27.1173,27.1173,0,0,1-3.6084.8588A23.248,23.248,0,0,1,1021.9834,492.1948Z" transform="translate(-484.3446 -349)"></path><path class="cls-1" d="M1045.002,422.1035q-6.0719,0-6.07-5.7265,0-5.61,6.07-5.6119,6.0689,0,6.07,5.6119Q1051.0723,422.1052,1045.002,422.1035Zm0,69.6333q-4.582,0-4.5811-5.04V439.8555q0-4.9227,4.5811-4.9248,4.6947,0,4.6953,4.9248v46.8418Q1049.6973,491.7385,1045.002,491.7368Z" transform="translate(-484.3446 -349)"></path><path class="cls-1" d="M1085.7725,492.1948a42.2339,42.2339,0,0,1-10.3643-1.3169,30.9563,30.9563,0,0,1-9.6777-4.2949,3.6007,3.6007,0,0,1-2.0039-3.2642,3.9039,3.9039,0,0,1,1.5459-3.1494q1.4868-1.1433,3.7793,0a31.97,31.97,0,0,0,8.6464,3.8365,32.81,32.81,0,0,0,8.3038,1.0883q6.5287,0,9.85-2.4052a7.6422,7.6422,0,0,0,3.3213-6.5284,6.4119,6.4119,0,0,0-2.1758-5.0961,15.66,15.66,0,0,0-6.8721-2.9205l-10.4219-2.2905q-14.203-3.0923-14.2021-14.66a14.5178,14.5178,0,0,1,6.0127-12.14q6.0132-4.579,15.748-4.581a34.2979,34.2979,0,0,1,9.5059,1.3169,24.1117,24.1117,0,0,1,8.2461,4.1806,3.45,3.45,0,0,1,1.7177,3.3213,4.1318,4.1318,0,0,1-1.7753,3.0347q-1.5455,1.09-3.7217-.2862a26.79,26.79,0,0,0-6.9864-3.3784,23.7689,23.7689,0,0,0-6.9863-1.0884q-6.416,0-9.7344,2.52a7.9372,7.9372,0,0,0-3.3222,6.643q0,6.4154,8.4756,8.2456l10.4218,2.1763q7.3287,1.6055,11.1094,5.0967a12.2414,12.2414,0,0,1,3.7793,9.4482,14.1283,14.1283,0,0,1-6.07,12.083Q1095.8491,492.1956,1085.7725,492.1948Z" transform="translate(-484.3446 -349)"></path><path class="cls-1" d="M1143.8389,492.1948q-9.8511,0-14.7744-5.2109-4.925-5.21-4.9249-15.0606V442.7188h-7.6728q-4.0107,0-4.0088-3.6651,0-3.5486,4.0088-3.55h7.6728V422.3325q0-4.6948,4.6963-4.6953,4.5792,0,4.5811,4.6953v13.1709h14.4307q4.0077,0,4.0078,3.55,0,3.6664-4.0078,3.6651H1133.417v28.2885q0,6.5281,2.748,9.9063,2.75,3.38,8.9336,3.3789a12.6181,12.6181,0,0,0,3.6651-.458,9.1338,9.1338,0,0,1,2.6338-.4585,1.877,1.877,0,0,1,1.7177.6875,4.2517,4.2517,0,0,1,.6875,2.7485,6.0619,6.0619,0,0,1-.5156,2.5195,2.9547,2.9547,0,0,1-1.7744,1.6036,27.1173,27.1173,0,0,1-3.6084.8588A23.248,23.248,0,0,1,1143.8389,492.1948Z" transform="translate(-484.3446 -349)"></path><path class="cls-1" d="M1170.752,492.1948q-5.0406,0-7.7881-2.7485t-2.7481-7.9028V421.0728q0-5.1534,2.7481-7.9024t7.9023-2.7485h28.1748q13.7432,0,21.2442,7.0434t7.5019,19.4126q0,12.3684-7.5019,19.4121t-21.2442,7.0435h-17.7519v18.21q0,5.154-2.6914,7.9028T1170.752,492.1948Zm10.5371-45.01h14.0869q12.3692,0,12.3691-10.3072T1195.376,426.57h-14.0869Z" transform="translate(-484.3446 -349)"></path><path class="cls-1" d="M1253.4414,492.4238a26.174,26.174,0,0,1-11.5107-2.4052,19.1487,19.1487,0,0,1-7.7871-6.585,16.7457,16.7457,0,0,1-2.8067-9.5635q0-6.0688,3.207-9.6772,3.2052-3.608,10.3077-5.1538a92.316,92.316,0,0,1,18.8974-1.5464h4.3516v-1.6035q0-4.1229-2.1182-5.8409-2.121-1.7175-7.2734-1.7177a34.2947,34.2947,0,0,0-6.2412.63,45.43,45.43,0,0,0-7.6162,2.2334q-3.7794,1.3741-6.2989-.1147a6.8493,6.8493,0,0,1-3.2646-4.2949,8.0041,8.0041,0,0,1,.5732-5.6118,8.4307,8.4307,0,0,1,5.0967-4.18,58.4619,58.4619,0,0,1,10.1358-2.6914,54.2143,54.2143,0,0,1,8.5322-.7442q14.0859,0,20.9013,6.07,6.8117,6.0717,6.8145,19.1259v23.1348q0,10.3074-9.3916,10.3076-8.9326,0-9.5059-9.1621a13.571,13.571,0,0,1-5.497,6.8716A17.1446,17.1446,0,0,1,1253.4414,492.4238Zm4.5811-13.2851a10.0587,10.0587,0,0,0,7.1582-2.7486,9.4517,9.4517,0,0,0,2.92-7.2153v-2.0615h-4.3516q-6.7587,0-9.9072,1.4316a4.7354,4.7354,0,0,0-3.1494,4.5239,5.6256,5.6256,0,0,0,1.89,4.3521A7.816,7.816,0,0,0,1258.0225,479.1387Z" transform="translate(-484.3446 -349)"></path><path class="cls-1" d="M1326.8525,513.0391q-12.9434,0-21.3027-3.3213-4.122-1.49-5.3252-4.3521a8.1694,8.1694,0,0,1-.2861-5.7837,8.0181,8.0181,0,0,1,3.2636-4.4668,5.97,5.97,0,0,1,5.5547-.4008,41.0358,41.0358,0,0,0,9.1055,2.6914,46.994,46.994,0,0,0,7.043.63q6.9843,0,10.48-2.92,3.4921-2.92,3.4931-9.1049v-5.2681a16.7434,16.7434,0,0,1-7.2148,6.5278,22.732,22.732,0,0,1-10.3076,2.4053,24.3928,24.3928,0,0,1-13.1709-3.4932,23.7367,23.7367,0,0,1-8.7617-9.792,36.2272,36.2272,0,0,1,0-29.5483,23.76,23.76,0,0,1,8.7617-9.7925,24.41,24.41,0,0,1,13.1709-3.4927,23.1,23.1,0,0,1,10.3642,2.3477,15.2635,15.2635,0,0,1,6.9287,6.3564q1.0313-8.4741,10.0791-8.4751,9.9639,0,9.9639,10.1929V483.605q0,14.7744-8.2461,22.104Q1342.2,513.0368,1326.8525,513.0391Zm.8018-38.3672a10.0712,10.0712,0,0,0,8.0166-3.4356q2.9766-3.4357,2.9775-9.6206t-2.9775-9.62a10.0718,10.0718,0,0,0-8.0166-3.436,9.937,9.937,0,0,0-7.9023,3.436q-2.98,3.4357-2.9776,9.62,0,6.1847,2.9776,9.6206A9.9364,9.9364,0,0,0,1327.6543,474.6719Z" transform="translate(-484.3446 -349)"></path><path class="cls-1" d="M1401.2959,492.4238a40.7259,40.7259,0,0,1-17.81-3.6074,26.4321,26.4321,0,0,1-11.51-10.25,32.4336,32.4336,0,0,1-.1719-30.9223,27.2175,27.2175,0,0,1,10.5361-10.3648,30.9623,30.9623,0,0,1,15.29-3.7222,29.2875,29.2875,0,0,1,14.7168,3.55,23.9712,23.9712,0,0,1,9.62,10.1358,33.3339,33.3339,0,0,1,3.3789,15.4038q0,4.467-5.2686,4.4668h-32.6406q1.0313,5.4968,4.5811,7.9023t9.85,2.4053a34.31,34.31,0,0,0,5.7265-.5728,28.5107,28.5107,0,0,0,6.2989-1.8325q3.6634-1.374,6.1845-.0571a6.6543,6.6543,0,0,1,3.3789,4.0083,8.0475,8.0475,0,0,1-.23,5.4976,7.8806,7.8806,0,0,1-4.2949,4.2944,33.8735,33.8735,0,0,1-8.5322,2.8061A48.7018,48.7018,0,0,1,1401.2959,492.4238Zm-2.749-45.6967a10.507,10.507,0,0,0-7.502,2.7485,13.3931,13.3931,0,0,0-3.7217,8.0171h21.3018q-.3427-5.3818-2.92-8.0742A9.4475,9.4475,0,0,0,1398.5469,446.7271Z" transform="translate(-484.3446 -349)"></path><path class="cls-2" d="M630.8217,374.1316l0,0a85.8043,85.8043,0,0,0-121.3454,0l0,0a85.8042,85.8042,0,0,0,0,121.3454L570.1489,556.15l60.6728-60.6728A85.8043,85.8043,0,0,0,630.8217,374.1316Zm-17.16,123.9866a16.3263,16.3263,0,1,1,16.3263-16.3263A16.3264,16.3264,0,0,1,613.6612,498.1182Zm12.439-39.255a7.8588,7.8588,0,0,1-7.2342-10.4339,51.3117,51.3117,0,1,0-39.2524,33.6177,8.0964,8.0964,0,0,1,9.0585,4.6792,7.8458,7.8458,0,0,1-5.8081,10.659,67.0546,67.0546,0,1,1,54.5248-65.8783,66.9086,66.9086,0,0,1-3.6316,21.8165A7.9475,7.9475,0,0,1,626.1,458.8632ZM596.9,431.5069A26.5575,26.5575,0,1,1,570.3421,404.95,26.5576,26.5576,0,0,1,596.9,431.5069Z" transform="translate(-484.3446 -349)"></path></svg>